<?xml version="1.0" encoding="utf-8"?>
<!-- Generator: Adobe Illustrator 18.1.0, SVG Export Plug-In . SVG Version: 6.00 Build 0)  -->
<!DOCTYPE svg PUBLIC "-//W3C//DTD SVG 1.1//EN" "http://www.w3.org/Graphics/SVG/1.1/DTD/svg11.dtd">
<svg version="1.1" xmlns="http://www.w3.org/2000/svg" xmlns:xlink="http://www.w3.org/1999/xlink" x="0px" y="0px"
	 viewBox="0 0 800 600" enable-background="new 0 0 800 600" xml:space="preserve">
<g id="Layer_1">
</g>
<g id="Elementi">
</g>
<g id="Screen2">
	<g>
		<g>
			<path fill="#AE0202" d="M242.4,97.6c0,0-34.3-2.7-43.4-31.6c-9.1-28.9,21.4-67.5,43.4-31.1c8.6-30.5,52-53.1,55.7-7
				c16.6-23.6,56.8-17.7,39.7,16.6c19.8-11.3,52,1.6,24.7,21.4c20.4,1.1,20.4,21.4,4.8,23.6c15.5,3.2,24.7,32.2-17.1,30.5
				C308.3,118.5,242.4,97.6,242.4,97.6z"/>
			<path fill="#C10202" d="M356.9,98.3c-3.2-3.2-12.9-6.4-22.5-9.6c12.9,0,36.5,3.2,30.1-12.9c-4.9-7.6-14,0-23.6,0
				c12.9-3.2,26.1-20.1,16.5-26.5c-9.8-3.4-19.7,0.8-29.4,10.4c6.4-9.7,9.7-25.7,3.2-32.2c-9.6-9.7-25.7-3.2-35.4,6.4
				c1.2-2.5,2-4.5,2.5-6.3c0,0.1-0.1,0.1-0.2,0.2c-3.7-46.1-47.1-23.6-55.7,7c-22-36.4-52.5,2.1-43.4,31.1
				c9.1,28.9,43.4,31.6,43.4,31.6s65.9,20.9,107.7,22.5c2.2,0.1,4.1,0.1,6,0C360.7,114,362.2,107.2,356.9,98.3z"/>
			<path fill="#D10202" d="M356.9,98.3c-3.2-3.2-12.9-6.4-22.5-9.6c12.9,0,30.6,5.2,24.2-10.9c-5-7.6-8.1-2-17.7-2
				c12.9-3.2,22.9-16.5,13.3-22.9c-9.7-3.4-22.1,2.4-31.8,12.1c6.4-9.7,10.4-26.9,4-33.4c-9.6-9.7-20.9-7.2-30.6,2.4
				c1.2-2.5,2-4.5,2.5-6.3c0,0.1-0.1,0.1-0.2,0.2c-3.7-46.1-47.1-23.6-55.7,7c-22-36.4-52.5,2.1-43.4,31.1
				c9.1,28.9,43.4,31.6,43.4,31.6s65.9,20.9,107.7,22.5c2.2,0.1,4.1,0.1,6,0C360.7,114,362.2,107.2,356.9,98.3z"/>
			<path fill="#8B0202" d="M353.4,121.7c-1.1,0-2.2,0-3.3-0.1c-40.5-1.6-104.3-21.4-108-22.5c-2.9-0.3-35.7-4.2-44.6-32.7
				c-3.8-12-1.2-26.6,6.5-37.2c5.1-7,11.6-10.8,18.3-10.8c5.1,0,12.5,2.3,19.7,12.7C248.1,14.2,264.5,0,278.6,0
				c11.1,0,18.5,8.6,20.7,23.8c6.5-7.3,15.8-11.8,25.1-11.8c7.4,0,13.5,3,16.7,8.1c2.4,3.9,4.1,10.5,0,21c4.1-1.6,8.7-2.5,13.2-2.5
				c10,0,17.9,4,19.9,9.9c1.2,3.6,0.6,9.2-7.7,16.2c9,1.8,13.2,7.6,13.5,13.1c0.2,4.4-2.2,9.3-7.6,11.8c6,3.4,10.1,10.2,9.5,16.6
				C381.3,111,377.6,121.7,353.4,121.7z M222.2,21.6c-5.6,0-11.2,3.4-15.7,9.5c-7,9.6-9.5,23.4-6,34.3c8.7,27.5,41.7,30.5,42,30.5
				l0.4,0.1c0.7,0.2,66.2,20.8,107.3,22.4c1.1,0,2.2,0.1,3.2,0.1c15.2,0,24.4-4.5,25.3-12.5c0.7-6.5-4.8-13.5-11.7-15l-9.2-1.9
				l9.3-1.3c6.9-1,9.9-5.8,9.7-9.9c-0.2-4.9-4.7-10-14.4-10.5l-4.5-0.2l3.7-2.7c7.6-5.5,11-10.8,9.6-15.1c-1.5-4.5-8.4-7.7-16.8-7.7
				c-5.6,0-11.2,1.4-15.7,4l-4.6,2.6l2.4-4.7c4.5-9.1,5.3-16.7,2-21.9c-2.6-4.2-7.7-6.6-14-6.6c-7.5,0-17.9,3.5-25,13.5l-2.6,3.6
				l-0.4-4.4c-1.3-16-7.7-24.8-17.9-24.8c-13.7,0-29.9,15-34.7,32.1l-1,3.6l-1.9-3.2C235.4,26.5,229,21.6,222.2,21.6z"/>
		</g>
		<g>
			<g>
				<path fill="#F3AB13" d="M290.6,462.2l5.5,57.6c0,0-50.6-9.7-57.7-3.4c-7.1,6.3,4.2,12.6,10.6,15.3c-16.4,3.4-25.5,9.7-22.2,15.3
					c3.2,5.6,38.1-7.1,50.8-6.5c-17.5,5.2-22.5,12.1-19.7,15.9c2.8,3.8,43.6-11.7,56.6-16.1c13-4.5,36.1-16.1,28-17.2
					c-8.2-1.1-31.1-1.1-31.1-1.1c-1.5-13-3.4-33.3-2.2-42.9C310.4,469.5,290.6,462.2,290.6,462.2z"/>
			</g>
			<g>
				<path fill="#F3BA13" d="M290.6,462.2l5.5,57.6c0,0-50.6-9.7-57.7-3.4c-7.1,6.3,4.2,12.6,10.6,15.3c-16.4,3.4-25.5,9.7-22.2,15.3
					c3.2,5.6,38.1-7.1,50.8-6.5c-17.5,5.2-22.5,12.1-19.7,15.9c2.8,3.8,36.6-14.5,49.6-18.9c13-4.5,28.9-10.3,20.8-11.4
					c-8.2-1.1-22.1-0.9-22.1-0.9c-1.5-13-4.1-36.6-2.8-46.1C304.5,469.4,290.6,462.2,290.6,462.2z"/>
			</g>
			<g>
				<path fill="#F3C913" d="M290.6,462.2l5.5,57.6c0,0-50.6-9.7-57.7-3.4c-7.1,6.3,4.2,12.6,10.6,15.3c-16.4,3.4-25.5,9.7-22.2,15.3
					c3.2,5.6,38.1-7.1,50.8-6.5c-17.5,5.2-22.5,12.1-19.7,15.9c2.8,3.8,36.6-14.5,49.6-18.9c13-4.5,28.9-10.3,20.8-11.4
					c-8.2-1.1-25.2,0.1-25.2,0.1c-1.5-13.1-1-37.6,0.3-47.1C304.5,469.4,290.6,462.2,290.6,462.2z"/>
			</g>
			<g>
				<path fill="#F39513" d="M259.9,558.6c-1.1,0-2.6-0.1-3.4-1.2c-1.1-1.5-1.3-3.3-0.7-5.1c1-3.1,4.4-6,9.5-8.7
					c-3.7,0.7-7.8,1.7-11.8,2.6c-8.8,2-17,3.9-22.3,3.9c-2,0-4.8-0.2-6-2.2c-1-1.8-1.1-3.8-0.3-5.7c1.9-4.3,8.8-8.2,19-10.9
					c-4-2.1-8.8-5.5-9.5-9.5c-0.3-1.6,0-4,2.7-6.5c2-1.7,6-2.6,12.7-2.6c14.6,0,37.2,3.9,44.2,5.2l-5.5-58.1l2.4,0.9
					c2.2,0.8,21,8.1,19.6,18.6c-1.2,9.2,0.7,29.1,2,41c5.5,0,22.8,0.2,29.9,1.1c2.5,0.3,3,1.7,3.1,2.4c0.5,5.8-26.6,16.5-30.8,17.9
					c-2.1,0.7-4.9,1.7-8.1,2.9C291.2,550.2,267.7,558.6,259.9,558.6z M259.1,555.3c0.1,0,0.4,0,0.8,0c7.2,0,31.3-8.6,45.8-13.8
					c3.3-1.2,6.1-2.2,8.2-2.9c11.5-3.9,25.3-11.2,28.1-14.1c-7.9-1-29.6-1-30.6-1H310l-0.3-1.4c-1.7-14.5-3.4-33.8-2.2-43.3
					c0.8-5.9-9.1-11.6-15.1-14.2l5.4,57.1l-2.1-0.4c-0.3-0.1-28.8-5.5-45.7-5.5c-7.5,0-9.9,1.1-10.6,1.7c-2,1.8-1.7,3.1-1.7,3.5
					c0.6,3.4,6.7,7,11.8,9.1l4.9,2l-5.2,1.1c-13.6,2.9-19.9,7.1-21.3,10.2c-0.4,1-0.4,1.8,0.1,2.8c0.1,0.2,0.9,0.6,3.2,0.6
					c4.8,0,13.3-1.9,21.5-3.8c9.4-2.1,19.1-4.3,24.8-4.1l9.4,0.5l-9,2.7c-12.6,3.7-18.1,8.2-19.1,11.2
					C258.6,554.1,258.6,554.8,259.1,555.3C259.1,555.3,259.1,555.3,259.1,555.3z"/>
			</g>
		</g>
		<g>
			<g>
				<path fill="#F39513" d="M294.6,527.7c0,0,0.3-3.4-0.1-7.8l3.2-0.3C298.1,524.3,294.6,527.7,294.6,527.7z"/>
			</g>
		</g>
		<g>
			<g>
				<path fill="#F39513" d="M246.9,533.8l-1-3.1c11.4-3.8,39.6-0.3,39.6-0.3C285.1,530.5,257.8,530.2,246.9,533.8z"/>
			</g>
		</g>
		<g>
			<g>
				<path fill="#F3AB13" d="M327.5,487.8c0,0,0.8,44.9,1.7,62.6c-11.8-2.4-52.9-3.7-55.1,3.5c-2.3,7.3,26.2,8.9,26.2,8.9
					c-27.4,3.2-48.3,15.3-42.6,22.3c5.8,7,41.5-8.5,59.1-10.2c-21.2,9.3-30.7,18.3-25.5,22.6c5.2,4.4,43-11.3,60.1-13
					c17.1-1.6,49.6-5,33.6-12.3c-16.1-7.3-39.4-12.1-39.4-12.1c-1-19-2.2-65.5,0.8-74.1C349.1,477.4,330,475.2,327.5,487.8z"/>
			</g>
			<g>
				<path fill="#F3BA13" d="M327.5,487.8c0,0,0.8,44.9,1.7,62.6c-11.8-2.4-52.9-3.7-55.1,3.5c-2.3,7.3,26.2,8.9,26.2,8.9
					c-27.4,3.2-48.3,15.3-42.6,22.3c5.8,7,41.5-8.5,59.1-10.2c-21.2,9.3-30.7,18.3-25.5,22.6c5.2,4.4,37.5-16.5,54.6-18.1
					c17.1-1.6,39.1-2,23.1-9.4c-16-7.4-30.5-11-30.5-11c-1-19,1.3-63.2,4.2-71.8C345.5,478.7,330,475.2,327.5,487.8z"/>
			</g>
			<g>
				<path fill="#F3C913" d="M327.5,487.8c0,0,0.8,44.9,1.7,62.6c-11.8-2.4-52.9-3.7-55.1,3.5c-2.3,7.3,26.2,8.9,26.2,8.9
					c-27.4,3.2-48.3,15.3-42.6,22.3c5.8,7,41.5-8.5,59.1-10.2c-21.2,9.3-30.7,18.3-25.5,22.6c5.2,4.4,30.7-18.2,47.8-19.9
					c17.1-1.6,40-0.3,23.9-7.6c-16-7.4-26.9-8-26.9-8c-1-19,1.2-64.4,4.2-73.1C343.1,480.4,330,475.2,327.5,487.8z"/>
			</g>
			<g>
				<path fill="#F39513" d="M294.3,600L294.3,600c-2,0-3.3-0.4-4.3-1.1c-1.5-1.3-2.2-2.9-1.9-4.8c0.7-5.3,8.7-10.8,16.8-15.2
					c-4.3,1.1-8.9,2.4-13.4,3.7c-11,3.1-21.4,6.1-28.2,6.1c-3.4,0-5.8-0.8-7.1-2.4c-1.4-1.7-1.7-3.8-0.8-5.9
					c2.7-6.7,16.2-13.5,32.8-17.1c-6.3-1-13.1-2.9-15.3-6c-0.8-1.2-1-2.5-0.6-3.7c1.3-4.4,11.4-6.6,29.8-6.6
					c9.3,0,19.2,0.6,25.2,1.6c-0.8-18.7-1.6-60.2-1.6-60.6v-0.2l0-0.2c1.4-7,7.5-10.1,12.8-10.1c3.6,0,6.7,1.3,8.2,3.5
					c1.2,1.7,1.4,3.6,0.7,5.7c-2.7,7.9-1.8,50.9-0.7,72.3c5,1.1,24.6,5.6,38.5,12c2.5,1.1,5.7,3,5.2,5.7c-0.8,4.5-11,7-39.3,9.7
					c-7.2,0.7-18.4,4-29.2,7.2C310.8,596.8,300.1,600,294.3,600z M326.5,572.5l-9.2,4c-18.4,8-25.5,14.8-25.9,18
					c-0.1,0.7,0.1,1.3,0.8,1.9c0.1,0,0.6,0.4,2.2,0.4l0,0c5.3,0,15.8-3.1,26.9-6.4c11-3.3,22.3-6.6,29.8-7.3c30.6-2.9,36-5.6,36.4-7
					l0,0c0,0-0.3-0.8-3.4-2.3c-15.7-7.2-38.8-12-39-12l-1.2-0.2l-0.1-1.3c-0.9-16.7-2.3-65.4,0.8-74.7c0.4-1.1,0.3-2-0.3-2.8
					c-0.9-1.3-3.2-2.2-5.6-2.2c-3.7,0-8.4,1.9-9.6,7.4c0.1,3.2,0.8,45.5,1.6,62.4l0.1,2.1l-2-0.4c-5.4-1.1-16.5-1.9-26.6-1.9
					c-20.1,0-26.2,2.8-26.7,4.3c-0.1,0.3-0.1,0.6,0.2,1c2.4,3.4,16.3,6.2,24.6,6.7l0.1,2.4c-21.9,2.5-39.4,10.8-41.9,17
					c-0.4,1.1-0.3,1.9,0.3,2.7c0.7,0.8,2.2,1.2,4.6,1.2c6.3,0,17-3,27.3-6c9.3-2.7,18.9-5.4,25.8-6L326.5,572.5z"/>
			</g>
		</g>
		<g>
			<g>
				<path fill="#F39513" d="M289.2,566.3l-0.8-3.1c7.8-2,29.2-0.6,29.2-0.6C317.4,562.6,296.8,564.4,289.2,566.3z"/>
			</g>
		</g>
		<g>
			<g>
				<path fill="#89370E" d="M197.3,290.5c0,0-44.4,50.4-6.9,115.8c37.5,65.4,128.1,88.9,182.7,88.1c54.7-0.8,59.5-16.5,74,0
					c7.2-10,0-21.3,0-21.3c14.5,11.6,14.5,21.3,14.5,21.3c13.7-7.2,22.1-24.1,22.5-44.2c15.7,17.3,14.1,28.1,14.1,28.1
					c10.8-7.6,20.1-25.3,14.5-44.2c10.5,9.3,17.7,24.1,18.1,35.8c13.3-16.5,27.7-37.4,16.5-69.9c13.3,10.9,24.1,33.4,20.5,57.5
					c17.7-20.9,50.2-80.8-23.3-128.6c41-2.8,76.4,41,71.5,80.8c24.1-35.8,43-121.4-65.1-140.7c32.6-20.5,81.6,6,97.3,41.4
					c8-51.8-30.5-106.1-93.3-101.7c31-18.5,52.3-12.5,64.3-6.4c-12.9-27.7-43-58.7-109.3-33.8c-66.3,24.9-78.4,110.6-77.6,156.4
					c0.8,45.8,5.6,91.6-6,83.2c-11.7-8.5-29.7-98.5-62.7-118.2C330.5,270.1,255.4,236.1,197.3,290.5z"/>
			</g>
			<g>
				<path fill="#994312" d="M420.1,440c-1.6-0.5-3.3-0.8-5.3-0.8C416.5,439.4,418.3,439.7,420.1,440z"/>
				<path fill="#994312" d="M648.1,310.3c2.6-80.2-63.1-104.9-125.8-100.5c31-18.5,69.8-38.1,96.9-7.6
					c-12.9-27.7-43-58.7-109.3-33.8c-66.3,24.9-78.4,110.6-77.6,156.4c0.8,45.8,17.1,100.3-17.4,85.1c-11.4-5-29.2-76-55.3-107.5
					c-10.8,8.9-21.8,22.4-11.6,35.1c-16.1-3.2-26.3-4.4-29.5-23.7c-12.9,9.6-16.1,25.7-16.1,38.6c-12.9-9.6-18.8-28.9-25.2-45
					c-9.7,6.4-22.1,7.2-31.7,19.7c-16.1-9.6-10.7-16.4-17.1-32.5c-12.1,6-27,14.9-42,13.3c-10.1,20.2-20.1,56.2,4.1,98.5
					c37.5,65.4,128.1,88.9,182.7,88.1c6.4-0.1,12.1-0.4,17.2-0.8c15-2.5,29.3-7,37.3-19c5.8-8.7,6.3-30.2-7.6-34.5
					c-1.8-0.3-3.5-0.6-5.3-0.8c2,0,3.7,0.3,5.3,0.8c21.1,3.5,43.5,10.8,49.4,34.5c9.7-16.1,16.1-38.6-3.2-51.5
					c19.3-3.2,25.7,19.3,41.8,25.8c0-12.9,0-25.8-6.4-38.6c26.1,5.8,36.4,35,28.8,57.2c0.1,0.8,0.2,1.7,0.3,2.4
					c13.3-16.5,20.2-46.8,8.9-79.4c13.3,10.8,32.1,17.7,28.1,66.9c2.3-27.3,28.2-87.3-45.4-135.1c41-2.8,97.3,4.5,93.6,87.3
					c24.1-35.8,16.9-118.4-91.2-137.7C557.2,251.5,616.6,229.3,648.1,310.3z"/>
				<path fill="#A14A12" d="M648.1,310.3c2.6-80.2-78.9-99.6-141.6-95.2c43.4-41.3,85.7-43.4,112.7-12.9
					c-12.9-27.7-43-58.7-109.3-33.8c-66.3,24.9-78.4,110.6-77.6,156.4c0.8,45.8,13,103.1-21.6,88c-11.4-5-26-70.7-52.1-102.2
					c-10.8,8.9-18,25.9-7.8,38.6c-16.1-3.2-30.5-10.7-33.7-30c-12.9,9.6-11,32.1-11,45c-12.9-9.6-23.8-34.3-30.3-50.4
					c-9.7,6.4-20.8,0.7-30.3,13.2c-16.1-9.6-10.7-16.4-17.1-32.5c-12.1,6-27,14.9-42,13.3c-10.1,20.2-20.1,56.2,4.1,98.5
					c37.5,65.4,128.1,88.9,182.7,88.1c6.4-0.1,12.1-0.4,17.2-0.8c15-2.5,18.4-9.6,26.4-21.6c5.8-8.7,11.7-33.8-1.9-35.6
					c-1.8-0.3,1.8,3.1,0,2.8c2,0,3.7-3.9,5.3-3.4c21.1,3.5,44.1,5.4,50,29.1c9.7-16.1,9.7-31.4-9.6-44.2
					c19.3-3.2,26.3,12.1,42.4,18.5c0-12.9,0.4-28.7-6-41.6c26.1,5.8,41.2,47.7,33.6,69.9c0.1,0.8,0.2,1.7,0.3,2.4
					c13.3-16.5,11.6-66.2,0.4-98.8c13.3,10.9,44.2,16,36.6,86.3c4.2-39,29.8-85.8-61.9-139.8c41-2.8,112.1-9.2,110.1,92
					c24.1-35.8-4-114.6-112.2-133.9C564.8,235,616.6,229.3,648.1,310.3z"/>
			</g>
			<g>
				<path fill="#7C2E06" d="M460,497.1v-2.7c0-0.2-0.3-6.7-8.7-15.4c1.1,4.4,1.3,10.5-2.9,16.3l-1.2,1.6l-1.3-1.5
					c-7.5-8.6-12-7.8-25-5c-9.6,2.1-24.2,5.2-47.8,5.5c-0.9,0-1.7,0-2.6,0c-62.9,0-146.5-27.9-181.6-88.9
					c-37.7-65.7,6.7-117.1,7.1-117.6c21.2-19.9,46.6-30,75.5-30c38.5,0,74.6,18.1,92.7,29c21.4,12.8,36.5,54.2,47.6,84.4
					c6.1,16.6,11.4,31,15.2,33.8c0.9,0.6,1.3,0.7,1.6,0.7c0.2,0,0.4,0,0.7-0.3c3.9-4.1,3-27.8,2.1-52.9c-0.3-9.5-0.7-19.3-0.9-29.3
					c-0.4-21.3,1.6-129,78.6-157.9c16.3-6.2,31.5-9.3,45.1-9.3c38,0,57,23.8,66.3,43.8l1.9,4.2l-4.1-2.1c-7.8-3.9-15.7-5.8-24.1-5.8
					c-10.4,0-21.4,3-32.9,8.9c0.2,0,0.3,0,0.5,0c26.5,0,50.2,10.7,66.9,30.1c17.1,20,24.9,47.5,20.9,73.7l-0.8,5.4l-2.2-5
					c-11.8-26.7-42.6-47.6-70-47.6c-7.7,0-14.8,1.6-21.2,4.8c38.7,7.8,63.8,24.8,74.8,50.8c13,30.7,2.8,68.1-13,91.6l-3.7,5.5
					l0.8-6.6c2.3-19.1-4.8-40-19.1-56.1c-12.6-14.3-29.2-22.6-45.8-23c24.4,17,38.4,36.9,41.7,59.2c4.9,33.7-15.8,61.3-22.3,69
					l-3.7,4.3l0.9-5.6c3.2-21.4-5.3-40.8-15.6-51.9c7.8,29.4-5.3,49.3-18.5,65.6l-2.7,3.4l-0.2-4.4c-0.3-10-5.8-22-13.7-30.8
					c2.7,17.2-5.6,33-16.3,40.5l-3.1,2.2l0.6-3.7c0-0.1,1-9.2-11.1-23.8c-1.4,18.9-10.1,34.6-23.2,41.5L460,497.1z M271.6,262.7
					c-28,0-52.7,9.7-73.2,29c-0.3,0.4-43.1,50.2-6.6,113.8c39.7,69.1,134.3,87.3,178.8,87.3c0.9,0,1.7,0,2.6,0
					c23.2-0.3,37.6-3.4,47.2-5.5c5.3-1.1,9.4-2,13-2c5.2,0,9.1,1.8,13.6,6.5c4.7-8.5-0.9-17.4-1.1-17.8l-5.3-8.3l7.6,6.1
					c10.6,8.6,13.8,16.2,14.7,20c11.8-7.4,19.3-23.1,19.7-41.7l0.1-4l2.7,3c11,12.2,13.8,21.3,14.4,26c9.6-8.3,16.3-24.1,11.4-40.5
					l-1.6-5.4l4.2,3.7c9.4,8.3,16.5,21.3,18.2,32.8c13.1-16.7,23.9-35.9,13.7-65.3l-1.9-5.3l4.4,3.6c11.9,9.7,23.1,30.1,21.6,53.4
					c11.6-15.5,21.6-38.7,18.2-62.1c-3.3-22.7-18.3-42.8-44.5-59.8l-4-2.6l4.8-0.4c19.3-1.3,38.9,7.6,53.4,24
					c13.3,14.9,20.6,34,20.3,52.1c13.4-22.8,20.9-55.8,9.4-83.2c-10.9-25.8-36.8-42.5-76.8-49.7l-4.1-0.7l3.5-2.2
					c7.8-4.9,16.8-7.4,26.6-7.4c26.9,0,56.8,19.2,70.5,44.6c2.2-23.6-5.4-47.9-20.8-65.8c-17.5-20.4-43.1-30.7-71.4-28.7l-6.7,0.5
					l5.8-3.4c22.2-13.3,42.9-16.1,61.7-8.4c-9.5-18.2-27.6-37.9-61.4-37.9c-13.2,0-27.9,3-43.9,9c-74.9,28.2-76.9,133.9-76.5,154.8
					c0.2,9.9,0.5,19.7,0.9,29.2c1.2,32.1,1.6,50.5-3,55.3c-1.7,1.7-4,1.8-6.4,0c-4.7-3.4-9.6-16.8-16.4-35.3
					c-10.9-29.8-25.8-70.6-46.2-82.8C344.8,280.6,309.3,262.7,271.6,262.7z"/>
			</g>
		</g>
		<g>
			<path fill="#994312" d="M276.8,459.7c0,0,28.8,45.7,65,48.4c36.2,2.7,39.9-22,39.9-22L276.8,459.7z"/>
			<path fill="#A14A12" d="M276.8,459.7c0,0,28.8,45.7,65,48.4c36.2,2.7,39.9-22,39.9-22L276.8,459.7z"/>
			<g>
				<path fill="#7C2E06" d="M347.1,509.9c-1.7,0-3.5-0.1-5.4-0.2c-21.9-1.6-41.5-18.2-54-31.7c-8.4-9-11.5-19.2-11.5-19.2
					c0.3,0.5,30.8,45.1,65.8,47.7c34.3,2.6,38.1-20.4,38.1-20.6C380,485.9,379.3,509.9,347.1,509.9z"/>
			</g>
		</g>
		<g>
			<path fill="#89370E" d="M378.4,446.6c33.4,15.7,76.4,29.5,1.6-33.5c27.7,8.6,50.6-0.7-2.8-28.8c19.3,0.8,29.3-13.3-3.2-28.5
				c16.1-0.8,19.3-8.4-8-22.9c-5.7,8.2-74.3,49.3-100.2,36c-25.9-13.3-15.5-39.2-15.5-39.2s-39.5-2.7-35.7,46.6
				c3.8,49.3,48.8,84.7,104.5,103.4c55.7,18.8,102.4,25.1,110.9,14.7C438.5,484,378.4,446.6,378.4,446.6z"/>
			<g>
				<path fill="#994312" d="M365.9,332.8c27.3,14.5,4.3,18.7-11.8,19.5c32.5,15.3,26.9,28.6,7.6,27.8c53.5,28.2,27.3,29-0.4,20.5
					c74.8,63,16.1,43.9-17.2,28.3c0,0,67.2,45.1,58.6,55.5c-8.6,10.4-28,14.1-83.7-4.7c-55.7-18.8-100.8-54.1-104.5-103.4
					c-3.7-49.3,39.7-49.4,39.7-49.4s-17.3,27.1,11.9,35.4S365.9,332.8,365.9,332.8z"/>
			</g>
			<g>
				<path fill="#A14A12" d="M365.9,332.8c27.3,14.5-5.7,18.7-21.8,19.5c32.6,15.3,26.1,25.7,6.8,24.9c53.5,28.1,22.6,26.6-5.2,18.1
					c74.8,63,18.1,45.8-15.3,30.1c0,0,68.8,43.1,60.2,53.5c-8.6,10.4-16,19.5-71.7,0.7c-55.7-18.8-100.8-54.1-104.5-103.4
					c-3.7-49.3,39.7-49.4,39.7-49.4s-17.3,27.1,11.9,35.4S365.9,332.8,365.9,332.8z"/>
			</g>
			<g>
				<path fill="#7C2E06" d="M410.3,500.9c-20.7,0-53.8-6.9-91.8-19.6c-63.7-21.4-102.2-59.6-105.6-104.8
					c-1.2-16.1,2.4-28.8,10.6-37.8c12.2-13.2,30.6-10.1,30.6-10.1c-0.2,0-17.1,0.2-28.3,12.3c-7.6,8.3-10.9,20.2-9.8,35.3
					c3.3,43.9,41,81.1,103.4,102c54.3,18.3,101.3,24.8,109.2,15.2c0.3-0.3,0.6-0.9,0.4-2c-1.7-10.3-37.8-34.8-51.6-43.4l-9.9-6.2
					l11.4,3.4c27.3,12.8,39.2,14.4,40.5,12.3c0.6-0.9,1.6-7.6-40.7-43.1l-6-5.1l7.6,2.3c14.4,4.4,25.7,3.6,27.2-0.1
					c1.5-3.5-5.8-12.4-31.3-25.8l-6.3-3.3l7.1,0.3c8.5,0.4,15.1-2.3,16.1-6.5c1.3-5.4-6.2-12.5-20.1-19l-5.8-2.7l6.5-0.3
					c7.4-0.4,10.4-2.1,10.7-3.7c0.2-0.9,0.2-5.8-19.5-16.2c0,0,10.7,2.3,14,4.7c6.5,4.7,9.3,8.7,8.6,12.2c-0.6,2.8-3.4,4.7-8.2,5.6
					c16.7,8.9,17.9,16.4,16.9,20.2c-1.1,4.6-6.2,7.8-13.4,8.7c15.4,8.6,30.8,19.4,27.6,27.1c-2.3,5.6-13.1,6-24.3,3.7
					c36.1,31,38.3,39.2,35.9,42.8c-2.4,3.8-11.6,2.5-27.3-3.6c15.2,10.5,35.8,26.1,37.3,35.2c0.3,1.8-0.1,3.4-1.1,4.6
					C428.1,499.1,420.9,500.9,410.3,500.9z"/>
			</g>
		</g>
		<g>
			<path fill="#994312" d="M483,394.5c0,0,20.9-25.7,32.2-39.1c0,0-19.3-0.5-39.1,10.7c0,0,22-39.1,32.7-56.3
				c0,0-38.6,13.9-49.8,38.6c-1.6-27.9,7.5-77.7,18.2-103.4c-40.7,12.3-44.9,75.6-44.9,75.6l51.9,107.7c3.2-8,17.1-24.1,33.8-30.6
				C517.8,397.7,502.8,391.8,483,394.5z"/>
			<g>
				<path fill="#A14A12" d="M468.9,401.1c0.6-0.1,1.3-0.2,2-0.2l-0.5-1.1C469.4,400.6,468.9,401.1,468.9,401.1z"/>
				<path fill="#A14A12" d="M470.9,400.9l13.2,27.4c3.2-8,17.1-24.1,33.8-30.6C517.8,397.7,490.6,398.4,470.9,400.9z"/>
				<path fill="#A14A12" d="M515.2,355.3c0,0-30.1,6.1-50,17.4c0,0,32.8-45.7,43.5-62.9c0,0-42.5,30.8-53.7,55.4
					c-1.6-27.9,0-92.7,22.1-120.3c-40.7,12.3-44.9,75.6-44.9,75.6l38.2,79.3C477,393.6,505.3,367.1,515.2,355.3z"/>
			</g>
			<g>
				<path fill="#7C2E06" d="M485.6,428.9c0,0,8.6-21,27.7-30.9c-5.6-1.5-16.8-3.7-30-1.9l-4,0.6l2.6-3.2
					c0.2-0.2,18.4-22.6,29.9-36.4c-6.4,0.4-20.5,2.3-34.8,10.4l-5,2.9l2.8-5c0.2-0.4,18.9-33.7,30.1-52.2
					c-10.4,4.5-35.8,17.1-44.4,35.9l-2.7,5.9l-0.4-6.5c-1.5-26.6,6.5-73.4,17-100.9c-36.2,14.2-40.5,72.4-40.5,73l-3.2-0.2
					c0.2-2.6,4.7-64.5,46.1-77l3.3-1l-1.3,3.2c-10.1,24.2-18.4,69.2-18.3,96.8c13.8-21.6,46.4-33.6,47.9-34.1l4.4-1.6l-2.5,3.9
					c-8.4,13.4-23.8,40.5-30,51.5c18.1-8.7,34.4-8.4,35.1-8.4l3.3,0.1l-2.1,2.5c-8.8,10.5-23.8,28.8-29.7,36.1
					c18-1.6,31.1,3.5,31.7,3.7l3.9,1.5l-3.9,1.5C501.9,405.6,488.4,421.6,485.6,428.9z"/>
			</g>
		</g>
		<g>
			<path fill="#DDDDDB" d="M269.7,182.2c0,0-17.7,23-41.3,43.4c-23.6,20.4-40,49-38.5,75.4c26.7-7.3,40.2-7.8,53.5-23.4
				c-3.2,18.8-8,30.6,2.1,46.6c8-9.6,29.5-17.2,35.9-31.1c4.3,21.5,12.9,38.1,12.9,38.1c6.4-18.8,20.4-36.5,20.4-36.5
				c10.2,20.9,26.3,32.1,26.3,32.1c-0.5-19.2,5.4-39.6,5.4-39.6c9.1,14.5,25.5,16.9,33.9,19.7c-3.4-21.3-8.8-50.8-17.9-79.7
				c-9.1-28.9-5.9-47.5-1.6-68c4.3-20.5,11.8-75.1-49.9-88.5c-61.6-13.4-90.6,29.5-83.6,60.6C234.3,162.4,240.2,179,269.7,182.2z"/>
			<path fill="#EBECE6" d="M257.2,243c0,16.1,0,32.2,0,48.2c12.9-6.4,16.1-22.5,25.7-32.2c0,16.1,9.6,25.7,12.9,38.6
				c0-16.1,9.7-28.9,12.9-41.8c6.4,16.1,12.9,32.2,22.5,45c22.5-45,9.7-96.5,19.3-144.7c6.4-19.3,13.1-33,2.6-52.4
				c-6.4-12.1-19.2-26.4-29.2-29.2c-3.9-1.5-8.2-2.8-12.9-3.8c-61.6-13.4-90.6,29.5-83.6,60.6c7,31.1,12.9,47.7,42.3,50.9
				c0,0-17.7,23-41.3,43.4c-22.8,19.7-38.9,47.2-38.5,72.8C215,281,244.9,273.8,257.2,243z"/>
			<path fill="#EBECE6" d="M257.2,243c0,16.1,0,32.2,0,48.2c12.9-6.4,16.1-22.5,25.7-32.2c0,16.1,9.6,25.7,12.9,38.6
				c0-16.1,9.7-28.9,12.9-41.8c6.4,16.1,12.9,32.2,22.5,45c22.5-45,9.7-96.5,19.3-144.7c6.4-19.3,13.1-33,2.6-52.4
				c-6.4-12.1-19.2-26.4-29.2-29.2c-3.9-1.5-8.2-2.8-12.9-3.8c-61.6-13.4-90.6,29.5-83.6,60.6c7,31.1,12.9,47.7,42.3,50.9
				c0,0-17.7,23-41.3,43.4c-22.8,19.7-38.9,47.2-38.5,72.8C215,281,244.9,273.8,257.2,243z"/>
			<path fill="#FFFFFF" d="M260.4,223.7c-3.2,19.3,3.2,35.4,3.2,54.7c6.4-12.8,16.1-22.5,19.3-35.4c6.4,9.7,3.2,25.7,9.6,35.4
				c0-16.1,12.9-25.7,12.9-41.8c9.6,12.9,16.1,28.9,25.7,41.8c0-28.9-0.5-79.7,9.1-108.7c8.4-36.2,20.4-57.8-4.2-87.6
				c-4.2-3.7-8.4-6.5-12.3-7.6c-3.9-1.5-8.2-2.8-12.9-3.8c-61.6-13.4-90.6,29.5-83.6,60.6c7,31.1,12.9,47.7,42.3,50.9
				c0,0-17.7,23-41.3,43.4c-22.8,19.7-38.9,47.2-38.5,72.8c1.9-1.3,3.8-2.6,5.8-3.8c1.1-2.4,2.3-4.6,3.7-6.7
				C218.6,265.5,247.6,252.7,260.4,223.7z"/>
			<path fill="#B7B7B6" d="M294.6,335.3l-1.7-3.4c-0.1-0.1-7.6-14.9-12.1-34.4c-4.7,6.9-12.8,12.1-20,16.9
				c-5.6,3.7-10.9,7.1-14,10.9l-1.4,1.7l-1.2-1.9c-8.9-14.1-6.7-25.2-4-39.4c0.2-1,0.4-2,0.6-3c-9.9,9.6-20.4,12.3-36.6,16.3
				c-4.2,1.1-8.8,2.2-13.9,3.6l-1.9,0.5l-0.1-2c-1.4-25.3,13.5-54.7,39.1-76.7c19-16.4,34.3-34.7,39.3-41
				c-28.8-4.2-34.3-22.6-40.9-51.8c-3.2-14.1,0.8-29.9,10.7-42.2c15.6-19.5,43.1-27.1,74.8-20.2c43.2,9.4,61.3,41.5,51.1,90.4
				c-4.6,21.9-7.2,39.5,1.6,67.1c9.4,29.9,14.7,60,17.9,80l0.4,2.6l-2.5-0.8c-1.3-0.4-2.8-0.9-4.5-1.3c-8.2-2.3-20.2-5.7-28.3-16.1
				c-1.6,6.5-4.8,21.5-4.4,35.8l0.1,3.2l-2.6-1.8c-0.6-0.5-15.4-10.8-25.6-30.3c-3.8,5.1-13.6,19.3-18.6,33.9L294.6,335.3z
				 M282.1,288l1,4.9c3.1,15.4,8.4,28.3,11.1,34.2c6.8-17.3,18.8-32.6,19.3-33.3l1.6-2l1.1,2.3c7.5,15.3,18.3,25.4,23.2,29.5
				c0.1-18.1,5.2-35.9,5.4-36.7l1-3.4l1.9,3.1c7.3,11.6,19.6,15.1,28.5,17.6c0.7,0.2,1.4,0.4,2.1,0.6c-3.2-19.9-8.4-48.5-17.4-77
				c-8.9-28.4-6.3-46.4-1.7-68.8c7-33.2,4.2-75.1-48.6-86.6c-30.4-6.6-56.8,0.6-71.6,19.1c-9.3,11.6-13,26.3-10.1,39.5
				c7.2,32.2,13.3,46.6,41,49.7l2.8,0.3l-1.7,2.2c-0.2,0.2-18.1,23.4-41.5,43.7c-24.1,20.8-38.5,48.3-38,72.1
				c4.3-1.2,8.3-2.2,12-3.1c17.7-4.4,28.3-7.1,38.8-19.3l3.8-4.4l-1,5.8c-0.5,3-1.1,5.8-1.6,8.5c-2.6,13.3-4.5,23.1,2.4,35.2
				c3.4-3.4,8.2-6.5,13.2-9.8c8.5-5.6,17.3-11.3,21-19.3L282.1,288z"/>
		</g>
		<g>
			<path fill="#B7B7B6" d="M283,184.5c-4.7,0-10.1-0.2-15.6-0.9l0.4-3.2c15.1,1.8,29.8,0.1,30,0.1
				C297.8,180.5,291.5,184.5,283,184.5z"/>
		</g>
		<g>
			<path fill="#FF9001" d="M267.6,138.3c0,0-23.5,30.9-37.2,31.7c-13.7,0.8-45.4-14-68.3-12.5C179,143.5,257,137.9,267.6,138.3z"/>
			<path fill="#FFA101" d="M267.6,138.3c0,0-24.1,22.5-37.7,23.3c-13.7,0.8-44.9-5.6-67.8-4C179,143.5,257,137.9,267.6,138.3z"/>
			<path fill="#FFB001" d="M267.6,138.3c0,0-25.9,20.2-39.6,21c-13.7,0.8-43-3.3-65.9-1.7C179,143.5,257,137.9,267.6,138.3z"/>
			<path fill="#FF7401" d="M229.3,171.7c-6.2,0-14.9-2.4-25-5.2c-13.7-3.8-29.4-8.1-42.2-7.3l-5,0.3l3.8-3.2
				c17.1-14.3,93.2-19.7,105.3-19.7c0.5,0,1,0,1.3,0l3.1,0.1l-1.9,2.5c-1,1.3-24.1,31.5-38.4,32.4
				C230.1,171.7,229.7,171.7,229.3,171.7z M167.8,155.9c12,0.4,25.4,4.2,37.4,7.5c10.5,2.9,19.5,5.4,25.1,5.1
				c9.6-0.6,26.2-18.9,34-28.5C246.7,140.3,188.7,145.5,167.8,155.9z"/>
		</g>
		<g>
			<path fill="#FF9001" d="M226.5,125.8c-4.9,0.1-55.2,0.8-73.7,35.8c9.2-4,20.5-11.3,46.2-7.4c25.7,3.8,56.7-5,68.5-15.9
				C243.7,133.9,234.1,125.6,226.5,125.8z"/>
			<path fill="#FFA101" d="M226.5,125.8c-4.9,0.1-55.2,0.8-73.7,35.8c9.2-4,21.6-18.6,47.3-14.8c25.7,3.8,55.6,2.3,67.5-8.6
				C243.7,133.9,234.1,125.6,226.5,125.8z"/>
			<path fill="#FFB001" d="M226.5,125.8c-4.9,0.1-55.2,0.8-73.7,35.8c9.2-4,23.2-24,48.9-20.1c25.7,3.8,54,7.7,65.9-3.2
				C243.7,133.9,234.1,125.6,226.5,125.8z"/>
			<path fill="#FF7401" d="M149.3,164.9l2.2-4c17.3-32.7,61.6-36.3,74.7-36.7h0.6c3.6,0,7.4,1.6,12.6,3.7c6.5,2.7,15.3,6.3,28.6,8.8
				l3.2,0.6l-2.4,2.2c-10.7,9.8-35.1,17.2-56.8,17.2l0,0c-4.5,0-8.9-0.3-13-0.9c-4.7-0.7-9.3-1.1-13.4-1.1c-13.8,0-22,3.8-28.6,6.9
				c-1.1,0.5-2.2,1-3.3,1.5L149.3,164.9z M226.8,127.4h-0.5c-12.1,0.3-51.4,3.5-69.4,30.6c6.7-3.1,15.1-6.6,28.5-6.6
				c4.3,0,9,0.4,13.9,1.1c4,0.6,8.2,0.9,12.5,0.9c19.4,0,40.9-6,52.1-14.2c-11.7-2.5-19.8-5.8-25.9-8.3
				C233.2,128.9,229.8,127.4,226.8,127.4z"/>
		</g>
		<g>
			<path fill="#FFFFFF" d="M307.6,111.7c0,11.1-9,20-20,20c-11,0-20-9-20-20c0-11,8.9-20,20-20C298.6,91.6,307.6,100.6,307.6,111.7z
				"/>
			<path fill="#B7B7B6" d="M287.6,133.3c-11.9,0-21.6-9.7-21.6-21.6s9.7-21.6,21.6-21.6c11.9,0,21.6,9.7,21.6,21.6
				S299.5,133.3,287.6,133.3z M287.6,93.3c-10.1,0-18.4,8.3-18.4,18.4c0,10.1,8.3,18.4,18.4,18.4c10.1,0,18.4-8.2,18.4-18.4
				C306,101.5,297.8,93.3,287.6,93.3z"/>
		</g>
		<g>
			<path fill="#067CFC" d="M300.8,115.6c0,5.7-4.6,10.2-10.2,10.2c-5.7,0-10.2-4.6-10.2-10.2c0-5.7,4.6-10.2,10.2-10.2
				C296.2,105.3,300.8,109.9,300.8,115.6z"/>
			<path fill="#0754D1" d="M290.5,127.4c-6.5,0-11.9-5.3-11.9-11.9c0-6.5,5.3-11.8,11.9-11.8c6.5,0,11.9,5.3,11.9,11.8
				C302.4,122.1,297,127.4,290.5,127.4z M290.5,106.9c-4.7,0-8.6,3.9-8.6,8.6c0,4.7,3.9,8.6,8.6,8.6c4.8,0,8.6-3.9,8.6-8.6
				C299.2,110.8,295.3,106.9,290.5,106.9z"/>
		</g>
		<g>
			<path d="M296.2,115.6c0,3.2-2.6,5.7-5.7,5.7c-3.2,0-5.7-2.6-5.7-5.7c0-3.2,2.6-5.7,5.7-5.7C293.7,109.8,296.2,112.4,296.2,115.6z
				"/>
		</g>
		<g>
			<path fill="#AE0202" d="M274.3,182.6c0,0,1.6,68.3-51.5,59.8c-53.1-8.4-9.1-62,21-70.8C249.7,180.1,265.4,182.3,274.3,182.6z"/>
			<path fill="#C10202" d="M263,181.4c0,0,3,53.2-36.7,53.6c-53.7,0.5-12.6-54.6,17.5-63.4C249.7,180.1,254.1,181.1,263,181.4z"/>
			<path fill="#D10202" d="M260.2,182.4c0,0,3,44.1-36.8,44.1c-41.4,0-9.8-46.2,20.3-54.9C249.7,180.1,251.4,182.2,260.2,182.4z"/>
			<path fill="#8B0202" d="M231.5,244.7c-2.9,0-5.9-0.3-9-0.7c-20.7-3.3-25.7-13.2-26.2-20.9c-1.2-19.5,25.8-46.9,46.9-53l1.1-0.3
				l0.7,0.9c5,7.1,18.4,10,29.2,10.3l1.5,0l0,1.5c0,1.4,0.6,33.4-16.7,51C252,241,242.7,244.7,231.5,244.7z M243.1,173.4
				c-19.9,6.4-44.7,31.5-43.5,49.4c0.6,9.5,8.5,15.5,23.4,17.9c14.1,2.2,25.5-0.9,33.8-9.4c14.3-14.6,15.6-40.7,15.8-47.2
				C265.9,183.8,250.2,182,243.1,173.4z"/>
		</g>
		<g>
			<path fill="#FFFFFF" d="M292.2,112.5c0,2.1-1.6,3.7-3.7,3.7c-2.1,0-3.7-1.7-3.7-3.7c0-2,1.7-3.7,3.7-3.7
				C290.6,108.8,292.2,110.4,292.2,112.5z"/>
		</g>
		<g>
			<path fill="#FFFFFF" d="M287.6,118.4c0,1-0.8,1.9-1.8,1.9s-1.8-0.8-1.8-1.9c0-1,0.8-1.8,1.8-1.8S287.6,117.4,287.6,118.4z"/>
		</g>
	</g>
</g>
</svg>
